<svg width="20" height="21" viewBox="0 0 20 21" fill="none" xmlns="http://www.w3.org/2000/svg">
<path d="M14 9.5V13.5V16.8994M14 9.5L8.5 7L5.75 5.75L4.375 5.125L3.6875 4.8125L3.34375 4.65625M14 9.5L15.5 8.5L16.25 8L16.625 7.75M17 14.9648V8.14391C17 7.75177 16.7708 7.39582 16.4138 7.23355L6.50602 2.73001C6.19134 2.58697 5.82512 2.61659 5.53751 2.80832L3.4453 4.20313C3.1671 4.3886 3 4.70083 3 5.03518V11.8561C3 12.2482 3.2292 12.6042 3.5862 12.7665L13.494 17.27C13.8087 17.413 14.1749 17.3834 14.4625 17.1917L16.5547 15.7969C16.8329 15.6114 17 15.2992 17 14.9648Z" stroke="currentColor" stroke-width="1.25"></path>
</svg>