<?xml version="1.0" encoding="UTF-8" standalone="no"?>
<!-- Created with Inkscape (http://www.inkscape.org/) -->

<svg
   width="37.233223mm"
   height="49.767735mm"
   viewBox="0 0 37.233223 49.767735"
   version="1.1"
   id="svg3526"
   inkscape:version="1.1 (c68e22c387, 2021-05-23)"
   sodipodi:docname="LOGOTIPO_SEM_MARGENS.svg"
   inkscape:export-filename="X:\01 IMAGEM URBANA\01 Manual De Normas Graficas - Logotipos - Fonts - Imagem Urbana\01 Logotipos\LOGOTIPO_SEM_MARGENS_500x668.png"
   inkscape:export-xdpi="341.09"
   inkscape:export-ydpi="341.09"
   xmlns:inkscape="http://www.inkscape.org/namespaces/inkscape"
   xmlns:sodipodi="http://sodipodi.sourceforge.net/DTD/sodipodi-0.dtd"
   xmlns="http://www.w3.org/2000/svg"
   xmlns:svg="http://www.w3.org/2000/svg"
   xmlns:rdf="http://www.w3.org/1999/02/22-rdf-syntax-ns#"
   xmlns:cc="http://creativecommons.org/ns#"
   xmlns:dc="http://purl.org/dc/elements/1.1/">
  <defs
     id="defs3520" />
  <sodipodi:namedview
     id="base"
     pagecolor="#ffffff"
     bordercolor="#666666"
     borderopacity="1.0"
     inkscape:pageopacity="0.0"
     inkscape:pageshadow="2"
     inkscape:zoom="2.8"
     inkscape:cx="91.428571"
     inkscape:cy="72.321429"
     inkscape:document-units="mm"
     inkscape:current-layer="layer1"
     showgrid="false"
     inkscape:window-width="1920"
     inkscape:window-height="1009"
     inkscape:window-x="-8"
     inkscape:window-y="-8"
     inkscape:window-maximized="1"
     inkscape:pagecheckerboard="0" />
  <metadata
     id="metadata3523">
    <rdf:RDF>
      <cc:Work
         rdf:about="">
        <dc:format>image/svg+xml</dc:format>
        <dc:type
           rdf:resource="http://purl.org/dc/dcmitype/StillImage" />
      </cc:Work>
    </rdf:RDF>
  </metadata>
  <g
     inkscape:label="Layer 1"
     inkscape:groupmode="layer"
     id="layer1"
     transform="translate(-72.853631,-71.032804)">
    <g
       transform="translate(38.846604,-96.683676)"
       id="g2837"
       style="fill:#6298ae;fill-opacity:1">
      <g
         style="fill:#6298ae;fill-opacity:1"
         transform="matrix(0.35277777,0,0,-0.35277777,48.209331,206.99782)"
         id="g2218">
        <path
           inkscape:connector-curvature="0"
           id="path2220"
           style="fill:#6298ae;fill-opacity:1;fill-rule:nonzero;stroke:none"
           d="M 0,0 0.567,1.428 1.152,0 Z m 1.023,3.294 h -0.86 l -2.374,-6.143 h 1.118 l 0.688,1.824 h 1.91 l 0.706,-1.824 h 1.152 z" />
      </g>
      <g
         style="fill:#6298ae;fill-opacity:1"
         transform="matrix(0.35277777,0,0,-0.35277777,69.286568,207.99516)"
         id="g2222">
        <path
           inkscape:connector-curvature="0"
           id="path2224"
           style="fill:#6298ae;fill-opacity:1;fill-rule:nonzero;stroke:none"
           d="M 0,0 H 0.997 V 3.767 L 2.374,1.256 H 3.01 L 4.267,3.767 V 0 H 5.333 V 6.091 H 4.301 L 2.667,3.042 1.015,6.091 H 0 Z" />
      </g>
      <path
         inkscape:connector-curvature="0"
         id="path2226"
         style="fill:#6298ae;fill-opacity:1;fill-rule:nonzero;stroke:none;stroke-width:0.35277778"
         d="m 36.197071,183.55761 h -2.190044 v 17.25083 h 2.190044 z" />
      <path
         inkscape:connector-curvature="0"
         id="path2228"
         style="fill:#6298ae;fill-opacity:1;fill-rule:nonzero;stroke:none;stroke-width:0.35277778"
         d="m 40.57716,179.34474 h -2.189692 v 21.4637 h 2.189692 z" />
      <path
         inkscape:connector-curvature="0"
         id="path2230"
         style="fill:#6298ae;fill-opacity:1;fill-rule:nonzero;stroke:none;stroke-width:0.35277778"
         d="m 44.957954,175.13151 h -2.190397 v 25.67693 h 2.190397 z" />
      <path
         inkscape:connector-curvature="0"
         id="path2232"
         style="fill:#6298ae;fill-opacity:1;fill-rule:nonzero;stroke:none;stroke-width:0.35277778"
         d="m 49.338396,170.91829 h -2.190044 v 29.8905 h 2.190044 z" />
      <path
         inkscape:connector-curvature="0"
         id="path2234"
         style="fill:#6298ae;fill-opacity:1;fill-rule:nonzero;stroke:none;stroke-width:0.35277778"
         d="m 53.71919,167.71648 h -2.19075 v 33.09231 h 2.19075 z" />
      <path
         inkscape:connector-curvature="0"
         id="path2236"
         style="fill:#6298ae;fill-opacity:1;fill-rule:nonzero;stroke:none;stroke-width:0.35277778"
         d="m 69.050207,183.55761 h 2.190044 v 17.25083 h -2.190044 z" />
      <path
         inkscape:connector-curvature="0"
         id="path2238"
         style="fill:#6298ae;fill-opacity:1;fill-rule:nonzero;stroke:none;stroke-width:0.35277778"
         d="m 64.669412,179.34474 h 2.19075 v 21.4637 h -2.19075 z" />
      <path
         inkscape:connector-curvature="0"
         id="path2240"
         style="fill:#6298ae;fill-opacity:1;fill-rule:nonzero;stroke:none;stroke-width:0.35277778"
         d="m 60.288971,175.13151 h 2.190397 v 25.67693 h -2.190397 z" />
      <path
         inkscape:connector-curvature="0"
         id="path2242"
         style="fill:#6298ae;fill-opacity:1;fill-rule:nonzero;stroke:none;stroke-width:0.35277778"
         d="m 55.909235,170.91829 h 2.190397 v 29.8905 h -2.190397 z" />
      <g
         style="fill:#6298ae;fill-opacity:1"
         transform="matrix(0.35277777,0,0,-0.35277777,40.117985,207.99378)"
         id="g2244">
        <path
           inkscape:connector-curvature="0"
           id="path2246"
           style="fill:#6298ae;fill-opacity:1;fill-rule:nonzero;stroke:none"
           d="M 0,0 H 0.998 V 3.768 L 2.375,1.256 H 3.011 L 4.267,3.768 V 0 H 5.333 V 6.091 H 4.302 L 2.667,3.042 1.016,6.091 H 0 Z" />
      </g>
      <path
         inkscape:connector-curvature="0"
         id="path2248"
         style="fill:#6298ae;fill-opacity:1;fill-rule:nonzero;stroke:none;stroke-width:0.35277778"
         d="m 34.376032,205.8327 h -0.364066 v 2.16112 h 0.364066 z" />
      <g
         style="fill:#6298ae;fill-opacity:1"
         transform="matrix(0.35277777,0,0,-0.35277777,56.215199,206.56493)"
         id="g2250">
        <path
           inkscape:connector-curvature="0"
           id="path2252"
           style="fill:#6298ae;fill-opacity:1;fill-rule:nonzero;stroke:none"
           d="m 0,0 0.963,0.462 c 0,0 -0.223,1.861 -2.425,1.928 0,0 -2.719,0.224 -2.752,-3.269 0,0 -0.14,-2.909 2.442,-3.113 0,0 1.789,-0.156 2.426,1.101 0,0 0.551,0.774 0.344,2.339 h -2.77 v -0.981 h 1.72 c 0,0 -0.051,-1.564 -1.566,-1.48 0,0 -1.445,0 -1.548,1.894 0,0 -0.104,1.754 0.895,2.288 0,0 1.772,0.791 2.271,-1.169" />
      </g>
      <g
         style="fill:#6298ae;fill-opacity:1"
         transform="matrix(0.35277777,0,0,-0.35277777,62.236198,205.80427)"
         id="g2254">
        <path
           inkscape:connector-curvature="0"
           id="path2256"
           style="fill:#6298ae;fill-opacity:1;fill-rule:nonzero;stroke:none"
           d="m 0,0 v -6.177 h 4.113 v 1.067 h -3.08 v 1.635 h 2.391 v 1.014 H 1.067 v 1.412 h 2.976 v 1.031 z" />
      </g>
      <g
         style="fill:#6298ae;fill-opacity:1"
         transform="matrix(0.35277777,0,0,-0.35277777,34.042552,210.66823)"
         id="g2258">
        <path
           inkscape:connector-curvature="0"
           id="path2260"
           style="fill:#6298ae;fill-opacity:1;fill-rule:nonzero;stroke:none"
           d="m 0,0 v -10.084 c 0,0 -0.431,-8.773 7.585,-9.135 0,0 2.805,-0.169 4.808,1.811 1.622,1.601 2.811,3.67 2.759,7.273 L 15.101,0.018 H 13.48 v -10.102 c 0,0 0.328,-7.291 -5.929,-7.481 0,0 -5.913,-0.103 -5.896,7.413 L 1.638,0 Z" />
      </g>
      <g
         style="fill:#6298ae;fill-opacity:1"
         transform="matrix(0.35277777,0,0,-0.35277777,53.544389,215.32031)"
         id="g2262">
        <path
           inkscape:connector-curvature="0"
           id="path2264"
           style="fill:#6298ae;fill-opacity:1;fill-rule:nonzero;stroke:none"
           d="M 0,0 4.482,10.688 9.17,0.07 Z M 5.102,13.205 H 3.93 L -4.481,-5.999 h 1.792 l 1.861,4.414 10.55,0.069 2.069,-4.483 1.792,0.07 z" />
      </g>
      <g
         style="fill:#6298ae;fill-opacity:1"
         transform="matrix(0.35277777,0,0,-0.35277777,59.150063,217.42921)"
         id="g2266">
        <path
           inkscape:connector-curvature="0"
           id="path2268"
           style="fill:#6298ae;fill-opacity:1;fill-rule:nonzero;stroke:none"
           d="M 0,0 V 19.189 H 1.275 L 12.386,3.296 v 15.867 h 1.648 V -0.027 H 12.838 L 1.568,15.841 1.649,0 Z" />
      </g>
      <g
         style="fill:#6298ae;fill-opacity:1"
         transform="matrix(0.35277777,0,0,-0.35277777,41.020602,213.71161)"
         id="g2270">
        <path
           inkscape:connector-curvature="0"
           id="path2272"
           style="fill:#6298ae;fill-opacity:1;fill-rule:nonzero;stroke:none"
           d="m 0,0 0.029,7.093 6.649,0.003 c 0,0 4.332,0.239 4.246,-3.415 0,0 0.103,-1.879 -2.103,-2.862 C 7.825,0.375 6.477,-0.043 4.098,-0.025 Z m 8.775,-4.74 c -1.196,1.332 -3.126,3.042 -3.126,3.042 1.908,-0.033 3.723,0.773 5.01,1.803 2.208,1.771 1.851,3.781 1.851,3.781 -0.517,4.828 -5.481,4.689 -5.481,4.689 h -8.55 l -0.023,-19.153 1.631,-0.023 0.046,8.847 H 3.351 C 5.19,-3.798 7.304,-5.385 8.568,-7.2 c 1.878,-2.697 2.23,-3.494 2.23,-3.494 l 1.793,0.047 c -1.035,2.045 -2.097,3.989 -3.816,5.907" />
      </g>
      <g
         style="fill:#6298ae;fill-opacity:1"
         transform="matrix(0.35277777,0,0,-0.35277777,49.66468,216.85905)"
         id="g2274">
        <path
           inkscape:connector-curvature="0"
           id="path2276"
           style="fill:#6298ae;fill-opacity:1;fill-rule:nonzero;stroke:none"
           d="m 0,0 c -0.962,-0.046 -1.752,-0.056 -3.132,-0.039 l -4.176,0.034 -0.018,7.205 6.149,10e-4 c 0,0 4.328,0.325 4.624,-3.361 C 3.447,3.84 3.676,0.176 0,0 m -1.413,15.981 c 0,0 4.292,-0.155 4.448,-3.361 0,0 0.305,-2.859 -3.018,-3.604 -1.31,-0.292 -1.982,-0.292 -3.309,-0.275 l -4.016,0.035 -0.018,7.205 z M 2.104,8.225 c 2.803,1.536 2.527,4.345 2.527,4.345 -0.229,4.996 -5.86,4.988 -5.86,4.988 h -7.723 l 0.023,-19.222 8.573,0.023 c 5.493,0.199 5.423,5.109 5.423,5.109 0.07,3.349 -2.963,4.757 -2.963,4.757" />
      </g>
      <g
         style="fill:#6298ae;fill-opacity:1"
         transform="matrix(0.35277777,0,0,-0.35277777,66.445084,215.32772)"
         id="g2278">
        <path
           inkscape:connector-curvature="0"
           id="path2280"
           style="fill:#6298ae;fill-opacity:1;fill-rule:nonzero;stroke:none"
           d="M 0,0 4.482,10.688 9.17,0.069 Z M 5.101,13.204 H 3.93 L -4.483,-5.998 h 1.794 l 1.861,4.413 10.549,0.067 2.07,-4.48 1.792,0.068 z" />
      </g>
    </g>
  </g>
</svg>
