<?xml version="1.0" encoding="UTF-8" standalone="no"?>
<!-- Created with Inkscape (http://www.inkscape.org/) -->

<svg
   width="70.715012mm"
   height="70.259933mm"
   viewBox="0 0 70.715012 70.259934"
   version="1.1"
   id="svg3526"
   inkscape:version="1.2.2 (732a01da63, 2022-12-09)"
   sodipodi:docname="LOGOTIPO_FUNDO_AZUL.svg"
   inkscape:export-filename="LOGOTIPO_FUNDO_AZUL.png"
   inkscape:export-xdpi="179.59"
   inkscape:export-ydpi="179.59"
   xmlns:inkscape="http://www.inkscape.org/namespaces/inkscape"
   xmlns:sodipodi="http://sodipodi.sourceforge.net/DTD/sodipodi-0.dtd"
   xmlns="http://www.w3.org/2000/svg"
   xmlns:svg="http://www.w3.org/2000/svg"
   xmlns:rdf="http://www.w3.org/1999/02/22-rdf-syntax-ns#"
   xmlns:cc="http://creativecommons.org/ns#"
   xmlns:dc="http://purl.org/dc/elements/1.1/">
  <defs
     id="defs3520" />
  <sodipodi:namedview
     id="base"
     pagecolor="#ffffff"
     bordercolor="#666666"
     borderopacity="1.0"
     inkscape:pageopacity="0.0"
     inkscape:pageshadow="2"
     inkscape:zoom="2.8"
     inkscape:cx="90.357143"
     inkscape:cy="135.71429"
     inkscape:document-units="mm"
     inkscape:current-layer="layer1"
     showgrid="false"
     inkscape:window-width="1920"
     inkscape:window-height="1009"
     inkscape:window-x="-8"
     inkscape:window-y="-8"
     inkscape:window-maximized="1"
     inkscape:pagecheckerboard="0"
     inkscape:showpageshadow="2"
     inkscape:deskcolor="#d1d1d1" />
  <metadata
     id="metadata3523">
    <rdf:RDF>
      <cc:Work
         rdf:about="">
        <dc:format>image/svg+xml</dc:format>
        <dc:type
           rdf:resource="http://purl.org/dc/dcmitype/StillImage" />
      </cc:Work>
    </rdf:RDF>
  </metadata>
  <g
     inkscape:label="Layer 1"
     inkscape:groupmode="layer"
     id="layer1"
     transform="translate(-47.323507,-48.25093)">
    <path
       d="M 47.323507,118.51086 H 118.03852 V 48.25093 H 47.323507 Z"
       style="fill:#6399ae;fill-opacity:1;fill-rule:nonzero;stroke:none;stroke-width:0.35277778"
       id="path2152"
       inkscape:connector-curvature="0" />
    <g
       id="g2154"
       transform="matrix(0.35277777,0,0,-0.35277777,78.040117,97.67852)">
      <path
         d="M 0,0 0.567,1.428 1.152,0 Z m 1.023,3.294 h -0.86 l -2.374,-6.143 h 1.118 l 0.688,1.824 h 1.91 l 0.706,-1.824 h 1.152 z"
         style="fill:#ffffff;fill-opacity:1;fill-rule:nonzero;stroke:none"
         id="path2156"
         inkscape:connector-curvature="0" />
    </g>
    <g
       id="g2158"
       transform="matrix(0.35277777,0,0,-0.35277777,99.117357,98.67586)">
      <path
         d="M 0,0 H 0.997 V 3.767 L 2.374,1.256 H 3.01 L 4.267,3.767 V 0 H 5.333 V 6.091 H 4.301 L 2.667,3.042 1.015,6.091 H 0 Z"
         style="fill:#ffffff;fill-opacity:1;fill-rule:nonzero;stroke:none"
         id="path2160"
         inkscape:connector-curvature="0" />
    </g>
    <path
       d="m 66.027787,74.23831 h -2.19004 v 17.25083 h 2.19004 z"
       style="fill:#ffffff;fill-opacity:1;fill-rule:nonzero;stroke:none;stroke-width:0.35277778"
       id="path2162"
       inkscape:connector-curvature="0" />
    <path
       d="m 70.407877,70.02543 h -2.18969 v 21.46371 h 2.18969 z"
       style="fill:#ffffff;fill-opacity:1;fill-rule:nonzero;stroke:none;stroke-width:0.35277778"
       id="path2164"
       inkscape:connector-curvature="0" />
    <path
       d="m 74.788667,65.81221 h -2.19039 v 25.67693 h 2.19039 z"
       style="fill:#ffffff;fill-opacity:1;fill-rule:nonzero;stroke:none;stroke-width:0.35277778"
       id="path2166"
       inkscape:connector-curvature="0" />
    <path
       d="m 79.169117,61.59898 h -2.19005 v 29.89051 h 2.19005 z"
       style="fill:#ffffff;fill-opacity:1;fill-rule:nonzero;stroke:none;stroke-width:0.35277778"
       id="path2168"
       inkscape:connector-curvature="0" />
    <path
       d="m 83.549907,58.39717 h -2.19075 v 33.09232 h 2.19075 z"
       style="fill:#ffffff;fill-opacity:1;fill-rule:nonzero;stroke:none;stroke-width:0.35277778"
       id="path2170"
       inkscape:connector-curvature="0" />
    <path
       d="m 98.880927,74.23831 h 2.190043 v 17.25083 h -2.190043 z"
       style="fill:#ffffff;fill-opacity:1;fill-rule:nonzero;stroke:none;stroke-width:0.35277778"
       id="path2172"
       inkscape:connector-curvature="0" />
    <path
       d="m 94.500127,70.02543 h 2.19075 v 21.46371 h -2.19075 z"
       style="fill:#ffffff;fill-opacity:1;fill-rule:nonzero;stroke:none;stroke-width:0.35277778"
       id="path2174"
       inkscape:connector-curvature="0" />
    <path
       d="m 90.119687,65.81221 h 2.1904 v 25.67693 h -2.1904 z"
       style="fill:#ffffff;fill-opacity:1;fill-rule:nonzero;stroke:none;stroke-width:0.35277778"
       id="path2176"
       inkscape:connector-curvature="0" />
    <path
       d="m 85.739947,61.59898 h 2.1904 v 29.89051 h -2.1904 z"
       style="fill:#ffffff;fill-opacity:1;fill-rule:nonzero;stroke:none;stroke-width:0.35277778"
       id="path2178"
       inkscape:connector-curvature="0" />
    <g
       id="g2180"
       transform="matrix(0.35277777,0,0,-0.35277777,69.948767,98.67448)">
      <path
         d="M 0,0 H 0.998 V 3.768 L 2.375,1.256 H 3.011 L 4.267,3.768 V 0 H 5.333 V 6.091 H 4.302 L 2.667,3.042 1.016,6.091 H 0 Z"
         style="fill:#ffffff;fill-opacity:1;fill-rule:nonzero;stroke:none"
         id="path2182"
         inkscape:connector-curvature="0" />
    </g>
    <path
       d="m 64.206747,96.5134 h -0.36406 v 2.16112 h 0.36406 z"
       style="fill:#ffffff;fill-opacity:1;fill-rule:nonzero;stroke:none;stroke-width:0.35277778"
       id="path2184"
       inkscape:connector-curvature="0" />
    <g
       id="g2186"
       transform="matrix(0.35277777,0,0,-0.35277777,86.045987,97.24563)">
      <path
         d="m 0,0 0.963,0.462 c 0,0 -0.223,1.861 -2.425,1.928 0,0 -2.719,0.224 -2.752,-3.269 0,0 -0.14,-2.909 2.442,-3.113 0,0 1.789,-0.156 2.426,1.101 0,0 0.551,0.774 0.344,2.339 h -2.77 v -0.981 h 1.72 c 0,0 -0.051,-1.564 -1.566,-1.48 0,0 -1.445,0 -1.548,1.894 0,0 -0.104,1.754 0.895,2.288 0,0 1.772,0.791 2.271,-1.169"
         style="fill:#ffffff;fill-opacity:1;fill-rule:nonzero;stroke:none"
         id="path2188"
         inkscape:connector-curvature="0" />
    </g>
    <g
       id="g2190"
       transform="matrix(0.35277777,0,0,-0.35277777,92.066987,96.48497)">
      <path
         d="m 0,0 v -6.177 h 4.113 v 1.067 h -3.08 v 1.635 h 2.391 v 1.014 H 1.067 v 1.412 h 2.976 v 1.031 z"
         style="fill:#ffffff;fill-opacity:1;fill-rule:nonzero;stroke:none"
         id="path2192"
         inkscape:connector-curvature="0" />
    </g>
    <g
       id="g2194"
       transform="matrix(0.35277777,0,0,-0.35277777,63.873337,101.34893)">
      <path
         d="m 0,0 v -10.084 c 0,0 -0.431,-8.773 7.585,-9.135 0,0 2.805,-0.169 4.808,1.811 1.622,1.601 2.811,3.67 2.759,7.273 L 15.101,0.018 H 13.48 v -10.102 c 0,0 0.328,-7.291 -5.929,-7.481 0,0 -5.913,-0.103 -5.896,7.413 L 1.638,0 Z"
         style="fill:#ffffff;fill-opacity:1;fill-rule:nonzero;stroke:none"
         id="path2196"
         inkscape:connector-curvature="0" />
    </g>
    <g
       id="g2198"
       transform="matrix(0.35277777,0,0,-0.35277777,83.375177,106.00101)">
      <path
         d="M 0,0 4.482,10.688 9.17,0.07 Z M 5.102,13.205 H 3.93 L -4.481,-5.999 h 1.792 l 1.861,4.414 10.55,0.069 2.069,-4.483 1.792,0.07 z"
         style="fill:#ffffff;fill-opacity:1;fill-rule:nonzero;stroke:none"
         id="path2200"
         inkscape:connector-curvature="0" />
    </g>
    <g
       id="g2202"
       transform="matrix(0.35277777,0,0,-0.35277777,88.980847,108.10991)">
      <path
         d="M 0,0 V 19.189 H 1.275 L 12.386,3.296 v 15.867 h 1.648 V -0.027 H 12.838 L 1.568,15.841 1.649,0 Z"
         style="fill:#ffffff;fill-opacity:1;fill-rule:nonzero;stroke:none"
         id="path2204"
         inkscape:connector-curvature="0" />
    </g>
    <g
       id="g2206"
       transform="matrix(0.35277777,0,0,-0.35277777,70.851387,104.3923)">
      <path
         d="m 0,0 0.029,7.093 6.649,0.003 c 0,0 4.332,0.239 4.246,-3.415 0,0 0.103,-1.879 -2.103,-2.862 C 7.825,0.375 6.477,-0.043 4.098,-0.025 Z m 8.775,-4.74 c -1.196,1.332 -3.126,3.042 -3.126,3.042 1.908,-0.033 3.723,0.773 5.01,1.803 2.208,1.771 1.851,3.781 1.851,3.781 -0.517,4.828 -5.481,4.689 -5.481,4.689 h -8.55 l -0.023,-19.153 1.631,-0.023 0.046,8.847 H 3.351 C 5.19,-3.798 7.304,-5.385 8.568,-7.2 c 1.878,-2.697 2.23,-3.494 2.23,-3.494 l 1.793,0.047 c -1.035,2.045 -2.097,3.989 -3.816,5.907"
         style="fill:#ffffff;fill-opacity:1;fill-rule:nonzero;stroke:none"
         id="path2208"
         inkscape:connector-curvature="0" />
    </g>
    <g
       id="g2210"
       transform="matrix(0.35277777,0,0,-0.35277777,79.495467,107.53975)">
      <path
         d="m 0,0 c -0.962,-0.046 -1.752,-0.056 -3.132,-0.039 l -4.176,0.034 -0.018,7.205 6.149,10e-4 c 0,0 4.328,0.325 4.624,-3.361 C 3.447,3.84 3.676,0.176 0,0 m -1.413,15.981 c 0,0 4.292,-0.155 4.448,-3.361 0,0 0.305,-2.859 -3.018,-3.604 -1.31,-0.292 -1.982,-0.292 -3.309,-0.275 l -4.016,0.035 -0.018,7.205 z M 2.104,8.225 c 2.803,1.536 2.527,4.345 2.527,4.345 -0.229,4.996 -5.86,4.988 -5.86,4.988 h -7.723 l 0.023,-19.222 8.573,0.023 c 5.493,0.199 5.423,5.109 5.423,5.109 0.07,3.349 -2.963,4.757 -2.963,4.757"
         style="fill:#ffffff;fill-opacity:1;fill-rule:nonzero;stroke:none"
         id="path2212"
         inkscape:connector-curvature="0" />
    </g>
    <g
       id="g2214"
       transform="matrix(0.35277777,0,0,-0.35277777,96.275837,106.00841)">
      <path
         d="M 0,0 4.482,10.688 9.17,0.069 Z M 5.101,13.204 H 3.93 L -4.483,-5.998 h 1.794 l 1.861,4.413 10.549,0.067 2.07,-4.48 1.792,0.068 z"
         style="fill:#ffffff;fill-opacity:1;fill-rule:nonzero;stroke:none"
         id="path2216"
         inkscape:connector-curvature="0" />
    </g>
  </g>
</svg>
